<?xml version="1.0" encoding="utf-8"?>
<!-- Generator: Adobe Illustrator 24.1.0, SVG Export Plug-In . SVG Version: 6.00 Build 0)  -->
<svg version="1.1" id="Layer_1" xmlns="http://www.w3.org/2000/svg" xmlns:xlink="http://www.w3.org/1999/xlink" x="0px" y="0px"
	 viewBox="0 0 209.1 113.5" style="enable-background:new 0 0 209.1 113.5;" xml:space="preserve">
<style type="text/css">
	.st0{fill:#6D6E71;}
	.st1{fill:#E3171A;}
</style>
<g id="Layer_2_1_">
	<path class="st0" d="M0.1,91.5V75.6h10.7c3.7,0,5.7,2,5.7,5.7v4.6c0,3.7-2,5.7-5.7,5.7L0.1,91.5z M5,87.3h4.8
		c0.9,0.1,1.7-0.5,1.8-1.4c0-0.1,0-0.3,0-0.4v-4c0.1-0.9-0.5-1.7-1.4-1.8c-0.1,0-0.3,0-0.4,0H5V87.3z"/>
	<path class="st0" d="M30.4,91.5L29.5,89H23l-0.9,2.5h-5.2l6.7-15.9h5.6l6.7,15.9L30.4,91.5z M24.2,85.7h4.1l-2-5.7L24.2,85.7z"/>
	<path class="st0" d="M46,75.6h5.1l-6.7,15.9h-4.8l-6.8-15.9h5.4l3.9,10.2L46,75.6z"/>
	<path class="st0" d="M52.9,75.6h5v15.9h-5V75.6z"/>
	<path class="st0" d="M60.8,91.5V75.6h10.7c3.7,0,5.7,2,5.7,5.7v4.6c0,3.7-2,5.7-5.7,5.7L60.8,91.5z M65.7,87.3h4.7
		c0.9,0.1,1.7-0.5,1.8-1.4c0-0.1,0-0.3,0-0.4v-4c0.1-0.9-0.5-1.7-1.4-1.8c-0.1,0-0.3,0-0.4,0h-4.7V87.3z"/>
	<path class="st0" d="M80,83.9l1.5-3.6h-1.8v-4.6h5.4v1.7c0,1.2-0.3,2.4-0.8,3.4l-1.5,3.1H80z"/>
	<path class="st0" d="M87.7,86.4h4.7v0.7c0,0.8,0.2,1,1,1h4.5c0.8,0,1-0.2,1-1v-0.6c0-0.8-0.2-0.9-1-1l-6.4-0.6
		c-2.5-0.2-3.6-1.2-3.6-3.6v-2.1c0-2.5,1.1-3.6,3.6-3.6h8.4c2.5,0,3.6,1.1,3.6,3.6v1.3h-4.7V80c0-0.8-0.2-1-1-1h-4c-0.8,0-1,0.2-1,1
		v0.3c0,0.7,0.2,0.9,1,1l6.4,0.6c2.6,0.2,3.6,1.1,3.6,3.6v2.4c0,2.5-1.1,3.6-3.6,3.6h-9c-2.5,0-3.6-1.1-3.6-3.6L87.7,86.4z"/>
	<path class="st0" d="M128.3,75.6h4.1v15.9h-4.6v-8l-3.5,5.5h-2.5l-3.5-5.5v8h-4.6V75.6h4.3l5.1,8.3L128.3,75.6z"/>
	<path class="st0" d="M139.6,91.5c-3.1,0-4.6-1.4-4.6-4.6v-6.7c0-3.2,1.5-4.6,4.6-4.6h7.4c3.1,0,4.6,1.4,4.6,4.6v6.7
		c0,3.2-1.5,4.6-4.6,4.6L139.6,91.5z M145.2,87.3c1.1,0,1.5-0.4,1.5-1.4v-4.7c0-1.1-0.4-1.5-1.5-1.5h-3.9c-1.1,0-1.5,0.4-1.5,1.5
		v4.7c0,1.1,0.4,1.4,1.5,1.4H145.2z"/>
	<path class="st0" d="M169.9,86.4v1.5c0,2.5-1.1,3.6-3.6,3.6h-12.1V75.6h11.6c2.5,0,3.6,1.1,3.6,3.6v1.2c0,1.6-0.5,2.6-1.6,3
		C169.2,83.6,169.9,84.7,169.9,86.4z M159.1,79.2v2.6h4.4c0.8,0,1-0.2,1-1v-0.6c0-0.8-0.2-1-1-1H159.1z M165,85.9c0-0.8-0.2-1-1-1
		h-4.9v3h4.9c0.8,0,1-0.2,1-1V85.9z"/>
	<path class="st0" d="M172.4,75.6h5v15.9h-5V75.6z"/>
	<path class="st0" d="M185.2,87.2h7.9v4.3h-12.8V75.6h4.9V87.2z"/>
	<path class="st0" d="M200,87.6h9v3.9h-14V75.6h13.7v3.9H200v2.2h7.9v3.4H200V87.6z"/>
	<path class="st1" d="M31,113.5l-0.9-2.5h-6.5l-0.9,2.5h-5.2l6.7-15.9h5.6l6.7,15.9H31z M24.8,107.6h4.1l-2-5.6L24.8,107.6z"/>
	<path class="st1" d="M41.7,113.5c-3.1,0-4.6-1.4-4.6-4.6V97.6H42v10.3c0,1.1,0.4,1.4,1.5,1.4h3.2c1.1,0,1.5-0.4,1.5-1.4V97.6H53
		v11.3c0,3.2-1.5,4.6-4.6,4.6H41.7z"/>
	<path class="st1" d="M69.9,97.6v4.3h-5.1v11.5h-4.9v-11.5h-5.1v-4.3H69.9z"/>
	<path class="st1" d="M76.2,113.5c-3.1,0-4.6-1.4-4.6-4.6v-6.7c0-3.2,1.5-4.6,4.6-4.6h7.4c3.1,0,4.6,1.4,4.6,4.6v6.7
		c0,3.2-1.5,4.6-4.6,4.6H76.2z M81.8,109.3c1.1,0,1.4-0.4,1.4-1.4v-4.7c0-1.1-0.4-1.5-1.4-1.5h-3.9c-1.1,0-1.4,0.4-1.4,1.5v4.7
		c0,1.1,0.4,1.4,1.4,1.4L81.8,109.3z"/>
	<path class="st1" d="M114.1,113.5h-5.3l-3.2-5.1h-2.7v5.1H98V97.6h11.3c2.9,0,4.1,1.2,4.1,4.1v2.2c0,2.5-0.9,3.7-2.9,4L114.1,113.5
		z M102.9,101.2v3.7h4.4c0.9,0,1.2-0.3,1.2-1.2v-1.2c0-0.9-0.3-1.2-1.2-1.2L102.9,101.2z"/>
	<path class="st1" d="M121.1,109.6h9v3.9h-13.9V97.6h13.7v3.9h-8.8v2.2h7.9v3.4h-7.9V109.6z"/>
	<path class="st1" d="M132.3,113.5V97.6h11.3c2.9,0,4.1,1.2,4.1,4.1v3.1c0,2.9-1.2,4.1-4.1,4.1h-6.4v4.5L132.3,113.5z M137.2,105.3
		h4.4c0.9,0,1.2-0.3,1.2-1.2v-1.5c0-0.9-0.3-1.2-1.2-1.2h-4.4V105.3z"/>
	<path class="st1" d="M160.5,113.5l-0.9-2.5h-6.5l-0.9,2.5h-5.2l6.7-15.9h5.6l6.7,15.9H160.5z M154.4,107.6h4.1l-2-5.6L154.4,107.6z
		"/>
	<path class="st1" d="M167.7,97.6h5v15.9h-5V97.6z"/>
	<path class="st1" d="M191.6,113.5h-5.3l-3.2-5.1h-2.7v5.1h-4.9V97.6h11.3c2.9,0,4.1,1.2,4.1,4.1v2.2c0,2.5-0.9,3.7-2.9,4
		L191.6,113.5z M180.4,101.2v3.7h4.4c0.9,0,1.2-0.3,1.2-1.2v-1.2c0-0.9-0.3-1.2-1.2-1.2L180.4,101.2z"/>
	<path class="st0" d="M60.6,64.5c3.9-24.3,26.8-40.8,51-36.9c19,3.1,33.9,17.9,36.9,36.9h28.3c-0.3-0.8-1-1.4-1.9-1.6l-10.3-1.2
		c-0.6-3.4-1.5-6.8-2.7-10.1l8.3-6.2c0.9-0.7,1.2-2,0.6-3L163.7,30c-0.6-1-1.8-1.4-2.9-1l-9.5,4.1c-2.3-2.7-4.7-5.2-7.4-7.4l4.1-9.5
		c0.4-1.1,0-2.3-1-2.9l-12.4-7.1c-1-0.5-2.3-0.3-3,0.6l-6.2,8.2c-3.3-1.2-6.7-2.1-10.1-2.7L114,2.1c-0.2-1.2-1.1-2-2.3-2.1H97.4
		c-1.2,0-2.2,0.9-2.3,2.1l-1.2,10.3c-3.4,0.6-6.8,1.5-10.1,2.7l-6.2-8.2c-0.7-0.9-2-1.2-3-0.6l-12.4,7.2c-1,0.6-1.4,1.8-1,2.9
		l4.1,9.5c-2.7,2.3-5.2,4.7-7.4,7.4L48.4,29c-1.1-0.4-2.3,0-2.9,1l-7.2,12.4c-0.5,1-0.3,2.3,0.6,3l8.3,6.2
		c-1.2,3.3-2.1,6.7-2.7,10.1l-10.3,1.2c-0.9,0.1-1.6,0.7-1.9,1.6H60.6z"/>
	<path class="st1" d="M94.5,64.5h8.4c-1.8-1.7-3.3-3-4.6-4C96.9,62,95.6,63.3,94.5,64.5z"/>
	<path class="st1" d="M87.4,55.6c1.6,0.5,3.2,0.6,4.8,0.3l0,0c1.8-0.3,7.2,4.2,12,8.7h10.3c-5-5.1-14.2-14.8-13.7-17.3
		c0,0,0-0.1,0-0.1c0.9-5.8-3-11.2-8.8-12.1c-1.5-0.2-3-0.2-4.4,0.2c-0.1,0-0.3,0.1-0.3,0.3c0,0.1,0,0.3,0.1,0.4l5.9,5.9L92,47
		l-5.2,1.4l-5.9-5.9c-0.2-0.2-0.4-0.2-0.6,0c0,0-0.1,0.1-0.1,0.2C78.8,48.2,82,53.9,87.4,55.6z"/>
	<path class="st1" d="M109.8,58.1l1,1.1c2.7-2.2,5-3.6,6-3.4l0,0c1.6,0.3,3.3,0.2,4.8-0.3c5.5-1.7,8.7-7.3,7.3-12.9
		c-0.1-0.2-0.3-0.3-0.5-0.3c-0.1,0-0.1,0.1-0.2,0.1l-5.9,5.9l-5.2-1.4c-0.5-1.7-0.9-3.5-1.4-5.2l5.9-5.9c0.1-0.1,0.1-0.3,0.1-0.4
		c0-0.1-0.1-0.3-0.3-0.3c-5.7-1.5-11.5,1.9-13,7.5c-0.4,1.4-0.5,2.9-0.2,4.4c0,0,0,0.1,0,0.1c0.2,1-1.1,3-3,5.5
		C106.3,54.1,107.8,55.9,109.8,58.1z"/>
	<rect y="67" class="st1" width="209.1" height="3.3"/>
	<rect x="0" y="103.9" class="st1" width="11.9" height="3.3"/>
	<rect x="197.2" y="103.9" class="st1" width="11.9" height="3.3"/>
</g>
</svg>
